<?xml version="1.0" encoding="utf-8"?>
<!-- Generator: Adobe Illustrator 24.0.1, SVG Export Plug-In . SVG Version: 6.00 Build 0)  -->
<svg version="1.1" id="github" xmlns="http://www.w3.org/2000/svg" xmlns:xlink="http://www.w3.org/1999/xlink" x="0px" y="0px"
	 viewBox="0 0 100 100" style="enable-background:new 0 0 100 100;" xml:space="preserve">
<style type="text/css">
	.st0{fill:#2E5449;}
	.st1{fill:#F7F7F7;}
</style>
<circle class="st0" cx="50" cy="50" r="48"/>
<path class="st1" d="M50,20.8c-16.1,0-29.2,13.1-29.2,29.2S33.9,79.2,50,79.2S79.2,66.1,79.2,50S66.1,20.8,50,20.8z M67.3,67.3
	c-2.3,2.3-4.9,4-7.8,5.3c-0.7,0.3-1.5,0.6-2.3,0.8V69c0-2.3-0.8-4-2.4-5.1c1-0.1,1.9-0.2,2.7-0.4c0.8-0.2,1.7-0.4,2.6-0.7
	c0.9-0.3,1.7-0.7,2.5-1.2c0.7-0.4,1.4-1,2.1-1.7c0.7-0.7,1.2-1.5,1.7-2.4c0.5-0.9,0.8-2,1.1-3.2c0.3-1.3,0.4-2.7,0.4-4.2
	c0-2.9-1-5.5-2.9-7.5c0.9-2.3,0.8-4.8-0.3-7.4L64.2,35c-0.5-0.1-1.4,0.2-2.7,0.6c-1.3,0.5-2.7,1.3-4.3,2.3c-2.3-0.6-4.6-0.9-7-0.9
	c-2.5,0-4.8,0.3-7,0.9c-1-0.7-2-1.2-2.9-1.7s-1.6-0.8-2.2-0.9c-0.5-0.2-1-0.3-1.5-0.3s-0.8,0-0.9,0c-0.1,0-0.2,0-0.3,0.1
	c-1.1,2.7-1.2,5.2-0.3,7.4c-1.9,2.1-2.9,4.6-2.9,7.5c0,1.5,0.1,2.9,0.4,4.2c0.3,1.3,0.6,2.3,1.1,3.2c0.5,0.9,1,1.7,1.7,2.4
	s1.4,1.3,2.1,1.7c0.7,0.4,1.6,0.8,2.5,1.2c0.9,0.3,1.8,0.6,2.6,0.7c0.8,0.2,1.7,0.3,2.7,0.4C43.8,65,43,66.7,43,69v4.5
	c-0.9-0.3-1.7-0.6-2.5-0.9c-2.9-1.2-5.5-3-7.8-5.3s-4-4.9-5.3-7.8c-1.3-3-1.9-6.2-1.9-9.5c0-3.3,0.6-6.5,1.9-9.5
	c1.2-2.9,3-5.5,5.3-7.8s4.9-4,7.8-5.3c3-1.3,6.2-1.9,9.5-1.9c3.3,0,6.5,0.6,9.5,1.9c2.9,1.2,5.5,3,7.8,5.3c2.3,2.3,4,4.9,5.3,7.8
	c1.3,3,1.9,6.2,1.9,9.5c0,3.3-0.6,6.5-1.9,9.5C71.4,62.5,69.6,65.1,67.3,67.3L67.3,67.3z"/>
</svg>
